<?xml version="1.0" encoding="UTF-8" standalone="no"?>
<!DOCTYPE svg PUBLIC "-//W3C//DTD SVG 1.1//EN" "http://www.w3.org/Graphics/SVG/1.1/DTD/svg11.dtd">
<svg width="100%" height="100%" viewBox="0 0 663 389" version="1.1" xmlns="http://www.w3.org/2000/svg" xmlns:xlink="http://www.w3.org/1999/xlink" xml:space="preserve" xmlns:serif="http://www.serif.com/" style="fill-rule:evenodd;clip-rule:evenodd;stroke-linejoin:round;stroke-miterlimit:2;">
    <g transform="matrix(1,0,0,1,-1196.95,-1339.57)">
        <g transform="matrix(17.9455,0,0,17.4367,1560.76,2064.9)">
            <path d="M11.595,-19.595L11.574,-35.388C11.574,-36.365 10.783,-37.153 9.809,-37.153C8.832,-37.153 8.044,-36.365 8.044,-35.388L8.054,-25.983C8.054,-24.633 7.749,-23.461 7.136,-22.474C6.522,-21.493 5.7,-20.722 4.678,-20.17C3.654,-19.615 2.519,-19.338 1.265,-19.338C0.017,-19.334 -1.128,-19.612 -2.163,-20.16C-3.194,-20.712 -4.02,-21.483 -4.623,-22.463C-5.23,-23.447 -5.535,-24.616 -5.535,-25.966L-5.545,-35.34C-5.545,-35.34 -5.405,-37.318 -7.547,-37.318L-9.943,-37.318L-9.943,-19.595L-15.002,-19.595L-14.998,-37.318L-20.273,-37.318L-20.273,-41.598L-7.547,-41.591L-7.547,-41.578C-6.241,-41.581 -4.857,-41.293 -3.828,-40.725C-2.804,-40.149 -1.991,-39.371 -1.398,-38.39C-0.805,-37.407 -0.504,-36.269 -0.504,-34.976L-0.494,-25.603C-0.494,-25.253 -0.411,-24.945 -0.243,-24.681C-0.082,-24.414 0.13,-24.205 0.384,-24.05C0.641,-23.899 0.922,-23.82 1.23,-23.82C1.56,-23.82 1.858,-23.899 2.139,-24.057C2.413,-24.208 2.636,-24.42 2.797,-24.684C2.958,-24.952 3.044,-25.26 3.044,-25.61L3.033,-34.98C3.026,-36.272 3.328,-37.414 3.921,-38.394C4.51,-39.377 5.326,-40.159 6.358,-40.735C7.393,-41.307 8.544,-41.598 9.816,-41.598C11.129,-41.598 12.291,-41.314 13.308,-40.745C14.32,-40.169 15.125,-39.391 15.721,-38.411C16.314,-37.424 16.616,-36.289 16.619,-34.997L16.633,-19.595L11.595,-19.595Z" style="fill:white;"/>
        </g>
    </g>
</svg>
